<svg width="1154" height="428" viewBox="0 0 1154 428" fill="none" xmlns="http://www.w3.org/2000/svg">
<path d="M443.949 366.541V213.814H554.02V247.223H485.412V273.473H548.353V306.882H485.412V333.132H553.722V366.541H443.949ZM627.048 366.541H568.284V213.814H626.452C642.162 213.814 655.734 216.871 667.169 222.986C678.653 229.052 687.503 237.802 693.717 249.236C699.981 260.621 703.114 274.268 703.114 290.177C703.114 306.086 700.006 319.758 693.792 331.193C687.577 342.578 678.778 351.328 667.393 357.443C656.008 363.508 642.56 366.541 627.048 366.541ZM609.747 331.342H625.557C633.114 331.342 639.552 330.124 644.871 327.688C650.241 325.252 654.317 321.051 657.101 315.085C659.935 309.119 661.352 300.817 661.352 290.177C661.352 279.538 659.91 271.236 657.027 265.27C654.193 259.304 650.017 255.103 644.498 252.667C639.03 250.231 632.318 249.013 624.364 249.013H609.747V331.342ZM806.381 213.814H847.844V311.655C847.844 323.288 845.06 333.356 839.492 341.857C833.974 350.309 826.268 356.846 816.374 361.47C806.481 366.044 794.996 368.331 781.921 368.331C768.746 368.331 757.212 366.044 747.319 361.47C737.425 356.846 729.719 350.309 724.201 341.857C718.732 333.356 715.998 323.288 715.998 311.655V213.814H757.461V308.075C757.461 312.798 758.505 317.024 760.593 320.753C762.681 324.432 765.564 327.315 769.243 329.403C772.972 331.491 777.198 332.535 781.921 332.535C786.694 332.535 790.92 331.491 794.599 329.403C798.277 327.315 801.161 324.432 803.249 320.753C805.337 317.024 806.381 312.798 806.381 308.075V213.814ZM861.25 366.541V213.814H927.174C938.509 213.814 948.427 215.877 956.929 220.003C965.43 224.13 972.042 230.071 976.765 237.827C981.488 245.582 983.85 254.879 983.85 265.717C983.85 276.655 981.414 285.877 976.542 293.384C971.719 300.891 964.933 306.559 956.183 310.387C947.483 314.215 937.316 316.129 925.682 316.129H886.307V283.913H917.33C922.202 283.913 926.353 283.317 929.784 282.123C933.264 280.88 935.924 278.917 937.763 276.232C939.652 273.547 940.597 270.042 940.597 265.717C940.597 261.342 939.652 257.787 937.763 255.053C935.924 252.269 933.264 250.231 929.784 248.938C926.353 247.596 922.202 246.925 917.33 246.925H902.713V366.541H861.25ZM950.739 296.442L988.921 366.541H943.878L906.591 296.442H950.739ZM1034.9 366.541H990.153L1040.56 213.814H1097.24L1147.65 366.541H1102.91L1069.5 255.873H1068.31L1034.9 366.541ZM1026.54 306.285H1110.66V337.308H1026.54V306.285Z" fill="white"/>
<path d="M300.105 203.011C300.105 204.472 299.039 205.721 297.601 205.983C241.812 216.15 204.924 243.792 190.998 258.817C189.717 260.199 187.494 260.199 186.213 258.817C172.287 243.792 135.399 216.15 79.6102 205.983C78.1722 205.721 77.1055 204.472 77.1055 203.011V151.289C77.1055 149.085 79.4027 147.633 81.3934 148.579L187.318 198.929C188.132 199.316 189.078 199.316 189.893 198.929L295.818 148.579C297.808 147.633 300.105 149.085 300.105 151.289V203.011Z" fill="white"/>
<path d="M180.105 282.885C180.105 282.054 179.749 281.248 179.139 280.683C132.066 237.018 97.9999 229.073 28.7158 215.299C26.8609 214.93 25.1055 216.344 25.1055 218.236V364.455C25.1055 365.958 26.2581 367.235 27.7479 367.436C114.035 379.118 142.273 390.994 174.909 422.452C176.838 424.311 180.105 422.972 180.105 420.293V282.885Z" fill="white"/>
<path d="M195.105 282.885C195.105 282.054 195.462 281.248 196.071 280.683C243.145 237.018 277.211 229.073 346.495 215.299C348.35 214.93 350.105 216.344 350.105 218.236V364.455C350.105 365.958 348.953 367.235 347.463 367.436C261.176 379.118 232.938 390.994 200.302 422.452C198.373 424.311 195.105 422.972 195.105 420.293V282.885Z" fill="white"/>
<path d="M1.72368 96.2453C-0.55497 95.1741 -0.579959 91.9418 1.68185 90.8354L186.766 0.305104C187.586 -0.0956867 188.543 -0.10191 189.367 0.288193L376.434 88.7929C378.721 89.8747 378.724 93.1269 376.44 94.2137L189.344 183.235C188.533 183.621 187.591 183.623 186.779 183.241L1.72368 96.2453Z" fill="white"/>
<path d="M331.106 98.541H348.106V187.541H331.106V98.541Z" fill="white"/>
<path d="M355.106 187.041C355.106 195.601 348.166 202.541 339.606 202.541C331.045 202.541 324.106 195.601 324.106 187.041C324.106 178.481 331.045 171.541 339.606 171.541C348.166 171.541 355.106 178.481 355.106 187.041Z" fill="white"/>
</svg>
