<svg width="1154" height="428" viewBox="0 0 1154 428" fill="none" xmlns="http://www.w3.org/2000/svg">
<path d="M444.844 366.541V213.814H554.915V247.223H486.307V273.473H549.247V306.882H486.307V333.132H554.616V366.541H444.844ZM627.943 366.541H569.179V213.814H627.346C643.056 213.814 656.629 216.871 668.063 222.986C679.548 229.052 688.397 237.802 694.612 249.236C700.876 260.621 704.008 274.268 704.008 290.177C704.008 306.086 700.901 319.758 694.686 331.193C688.472 342.578 679.672 351.328 668.287 357.443C656.902 363.508 643.454 366.541 627.943 366.541ZM610.642 331.342H626.451C634.008 331.342 640.446 330.124 645.766 327.688C651.135 325.252 655.212 321.051 657.996 315.085C660.83 309.119 662.247 300.817 662.247 290.177C662.247 279.538 660.805 271.236 657.921 265.27C655.088 259.304 650.911 255.103 645.393 252.667C639.924 250.231 633.213 249.013 625.258 249.013H610.642V331.342ZM807.276 213.814H848.739V311.655C848.739 323.288 845.955 333.356 840.387 341.857C834.868 350.309 827.162 356.846 817.269 361.47C807.375 366.044 795.891 368.331 782.815 368.331C769.641 368.331 758.107 366.044 748.213 361.47C738.32 356.846 730.614 350.309 725.095 341.857C719.627 333.356 716.892 323.288 716.892 311.655V213.814H758.355V308.075C758.355 312.798 759.399 317.024 761.487 320.753C763.575 324.432 766.459 327.315 770.138 329.403C773.867 331.491 778.092 332.535 782.815 332.535C787.588 332.535 791.814 331.491 795.493 329.403C799.172 327.315 802.056 324.432 804.144 320.753C806.232 317.024 807.276 312.798 807.276 308.075V213.814ZM862.145 366.541V213.814H928.068C939.403 213.814 949.322 215.877 957.823 220.003C966.325 224.13 972.937 230.071 977.66 237.827C982.383 245.582 984.744 254.879 984.744 265.717C984.744 276.655 982.308 285.877 977.436 293.384C972.614 300.891 965.827 306.559 957.077 310.387C948.377 314.215 938.21 316.129 926.577 316.129H887.202V283.913H918.224C923.097 283.913 927.248 283.317 930.678 282.123C934.158 280.88 936.818 278.917 938.658 276.232C940.547 273.547 941.492 270.042 941.492 265.717C941.492 261.342 940.547 257.787 938.658 255.053C936.818 252.269 934.158 250.231 930.678 248.938C927.248 247.596 923.097 246.925 918.224 246.925H903.608V366.541H862.145ZM951.634 296.442L989.815 366.541H944.773L907.486 296.442H951.634ZM1035.79 366.541H991.047L1041.46 213.814H1098.14L1148.55 366.541H1103.8L1070.39 255.873H1069.2L1035.79 366.541ZM1027.44 306.285H1111.56V337.308H1027.44V306.285Z" fill="black"/>
<path d="M301 203.011C301 204.472 299.933 205.721 298.495 205.983C242.706 216.15 205.819 243.792 191.893 258.817C190.611 260.199 188.389 260.199 187.107 258.817C173.181 243.792 136.294 216.15 80.5047 205.983C79.0667 205.721 78 204.472 78 203.011V151.289C78 149.085 80.2973 147.633 82.2879 148.579L188.212 198.929C189.027 199.316 189.973 199.316 190.788 198.929L296.712 148.579C298.703 147.633 301 149.085 301 151.289V203.011Z" fill="#262626"/>
<path d="M181 282.885C181 282.054 180.643 281.248 180.034 280.683C132.96 237.018 98.8944 229.073 29.6104 215.299C27.7554 214.93 26 216.344 26 218.236V364.455C26 365.958 27.1526 367.235 28.6424 367.436C114.93 379.118 143.168 390.994 175.804 422.452C177.732 424.311 181 422.972 181 420.293V282.885Z" fill="url(#paint0_linear_1762_3391)"/>
<path d="M196 282.885C196 282.054 196.357 281.248 196.966 280.683C244.04 237.018 278.106 229.073 347.39 215.299C349.245 214.93 351 216.344 351 218.236V364.455C351 365.958 349.847 367.235 348.358 367.436C262.07 379.118 233.832 390.994 201.196 422.452C199.268 424.311 196 422.972 196 420.293V282.885Z" fill="url(#paint1_linear_1762_3391)"/>
<path d="M2.61821 96.2453C0.339561 95.1741 0.314572 91.9418 2.57638 90.8354L187.661 0.305104C188.48 -0.0956867 189.437 -0.10191 190.262 0.288193L377.329 88.7929C379.615 89.8747 379.619 93.1269 377.335 94.2137L190.238 183.235C189.427 183.621 188.486 183.623 187.673 183.241L2.61821 96.2453Z" fill="#262626"/>
<path d="M332 98.541H349V187.541H332V98.541Z" fill="#262626"/>
<path d="M356 187.041C356 195.601 349.061 202.541 340.5 202.541C331.94 202.541 325 195.601 325 187.041C325 178.481 331.94 171.541 340.5 171.541C349.061 171.541 356 178.481 356 187.041Z" fill="#262626"/>
<defs>
<linearGradient id="paint0_linear_1762_3391" x1="210.595" y1="285.368" x2="-11.1175" y2="297.427" gradientUnits="userSpaceOnUse">
<stop stop-color="#55B786"/>
<stop offset="1" stop-color="#55B5A6"/>
</linearGradient>
<linearGradient id="paint1_linear_1762_3391" x1="166.405" y1="285.368" x2="388.117" y2="297.427" gradientUnits="userSpaceOnUse">
<stop stop-color="#55B786"/>
<stop offset="1" stop-color="#55B5A6"/>
</linearGradient>
</defs>
</svg>
